<?xml version="1.0" standalone="no"?><!DOCTYPE svg PUBLIC "-//W3C//DTD SVG 1.1//EN" "http://www.w3.org/Graphics/SVG/1.1/DTD/svg11.dtd"><svg t="1540968964659" class="icon" style="" viewBox="0 0 1024 1024" version="1.1" xmlns="http://www.w3.org/2000/svg" p-id="57678" xmlns:xlink="http://www.w3.org/1999/xlink" width="32" height="32"><defs><style type="text/css"></style></defs><path d="M956.928 439.674435C953.945043 196.36313 756.023652 0 512 0S70.054957 196.36313 67.072 439.674435C26.223304 472.30887 0 522.440348 0 578.782609c0 98.348522 79.738435 178.086957 178.086957 178.086957 42.918957 0 82.276174-15.204174 113.018435-40.470261L207.204174 403.277913C197.698783 401.719652 188.015304 400.695652 178.086957 400.695652c-6.544696 0-12.978087 0.400696-19.344696 1.090783C180.201739 225.613913 330.017391 89.043478 512 89.043478c181.960348 0 331.798261 136.570435 353.257739 312.742957C858.913391 401.096348 852.457739 400.695652 845.913043 400.695652c-9.928348 0-19.634087 1.024-29.139478 2.582261l-83.878957 312.965565c23.730087 19.478261 52.580174 32.946087 84.23513 38.110609-42.006261 45.122783-95.432348 79.515826-155.870609 98.103652l-7.368348 7.368348C635.035826 825.165913 598.750609 801.391304 556.521739 801.391304c-61.484522 0-111.304348 49.819826-111.304348 111.304348s49.819826 111.304348 111.304348 111.304348c50.465391 0 92.560696-33.792 106.22887-79.805217 122.835478-30.118957 225.747478-110.970435 284.850087-219.358609C993.747478 692.669217 1024 639.287652 1024 578.782609 1024 522.462609 997.754435 472.30887 956.928 439.674435z" fill="#ffffff" p-id="57679"></path></svg>