<?xml version="1.0" standalone="no"?><!DOCTYPE svg PUBLIC "-//W3C//DTD SVG 1.1//EN" "http://www.w3.org/Graphics/SVG/1.1/DTD/svg11.dtd"><svg t="1542076026769" class="icon" style="" viewBox="0 0 1024 1024" version="1.1" xmlns="http://www.w3.org/2000/svg" p-id="9705" xmlns:xlink="http://www.w3.org/1999/xlink" width="16" height="16"><defs><style type="text/css"></style></defs><path d="M701.334979 245.041923H740.471613l177.604826 152.230128v534.060636a18.024163 18.024163 0 0 1-5.291663 12.76862c-0.108362 0.108362-0.216723 0.144482-0.325085 0.216723a18.602092 18.602092 0 0 1-5.436146 3.666238 17.87968 17.87968 0 0 1-7.02545 1.408702h-577.929064a18.060283 18.060283 0 0 1-18.060283-18.060283v-144.482266h-162.542549a18.096404 18.096404 0 0 1-18.060284-18.060284v-650.170197a18.060283 18.060283 0 0 1 18.060284-18.060283h541.808497a17.87968 17.87968 0 0 1 7.02545 1.426763c1.93245 0.812713 3.630117 2.076933 5.183302 3.485634 0.144482 0.162543 0.379266 0.216723 0.559868 0.379266 3.250851 3.268911 5.291663 7.783982 5.291663 12.76862v126.421983z m-54.180849-90.301416h-469.567365v577.929064h126.421983v-469.567365a18.060283 18.060283 0 0 1 18.060283-18.060283h325.085099v-90.301416z m-288.964532 144.482266v595.989347h505.687931v-451.507081h-144.482266a18.060283 18.060283 0 0 1-18.060284-18.060283v-126.421983h-343.145381z m270.904248 180.602832h-180.602832a18.060283 18.060283 0 0 1-18.060283-18.060283v-18.060283a18.060283 18.060283 0 0 1 18.060283-18.060283h180.602832a18.060283 18.060283 0 0 1 18.060284 18.060283v18.060283a18.060283 18.060283 0 0 1-18.060284 18.060283z m-180.602832 54.18085h325.085098a18.060283 18.060283 0 0 1 18.060284 18.060283v18.060284a18.060283 18.060283 0 0 1-18.060284 18.060283h-325.085098a18.060283 18.060283 0 0 1-18.060283-18.060283v-18.060284a18.060283 18.060283 0 0 1 18.060283-18.060283z m0 108.3617h325.085098a18.060283 18.060283 0 0 1 18.060284 18.060283v18.060283a18.060283 18.060283 0 0 1-18.060284 18.060283h-325.085098a18.060283 18.060283 0 0 1-18.060283-18.060283v-18.060283a18.060283 18.060283 0 0 1 18.060283-18.060283z m0 108.361699h325.085098a18.060283 18.060283 0 0 1 18.060284 18.060283v18.060284a18.060283 18.060283 0 0 1-18.060284 18.060283h-325.085098a18.060283 18.060283 0 0 1-18.060283-18.060283v-18.060284a18.060283 18.060283 0 0 1 18.060283-18.060283z" fill="#2D2E2E" p-id="9706"></path></svg>