<?xml version="1.0" standalone="no"?><!DOCTYPE svg PUBLIC "-//W3C//DTD SVG 1.1//EN" "http://www.w3.org/Graphics/SVG/1.1/DTD/svg11.dtd"><svg t="1542075503653" class="icon" style="" viewBox="0 0 1024 1024" version="1.1" xmlns="http://www.w3.org/2000/svg" p-id="8748" xmlns:xlink="http://www.w3.org/1999/xlink" width="16" height="16"><defs><style type="text/css"></style></defs><path d="M723.458 440.207c0-23.791-18.968-43.071-42.304-43.071-23.351 0-42.292 19.279-42.292 43.07v358.992c0 23.765 18.942 43.083 42.292 43.083 23.336 0 42.304-19.279 42.304-43.083V440.207z m-169.167 0c0-23.791-18.955-43.071-42.291-43.071-23.363 0-42.291 19.279-42.291 43.07v358.992c0 23.765 18.928 43.083 42.291 43.083 23.336 0 42.291-19.279 42.291-43.083V440.207z m-169.166 0c0-23.791-18.954-43.071-42.29-43.071-23.35 0-42.292 19.279-42.292 43.07v358.992c0 23.765 18.941 43.083 42.291 43.083 23.323 0 42.291-19.279 42.291-43.083V440.207z m422.916-86.141V885.352c0 23.766-18.954 43.058-42.29 43.058H258.25c-23.35 0-42.291-19.306-42.291-43.058V310.995H808.04v43.071zM173.666 224.841c0-23.778 18.928-43.11 42.292-43.11h211.458v-43.058c0-23.804 18.941-43.084 42.29-43.084h84.584c23.323 0 42.291 19.28 42.291 43.084v43.058H808.04c23.338 0 42.292 19.28 42.292 43.11v43.084H173.666v-43.084z" p-id="8749" fill="#515151"></path></svg>