<?xml version="1.0" standalone="no"?><!DOCTYPE svg PUBLIC "-//W3C//DTD SVG 1.1//EN" "http://www.w3.org/Graphics/SVG/1.1/DTD/svg11.dtd"><svg t="1540973100884" class="icon" style="" viewBox="0 0 1024 1024" version="1.1" xmlns="http://www.w3.org/2000/svg" p-id="60974" xmlns:xlink="http://www.w3.org/1999/xlink" width="32" height="32"><defs><style type="text/css"></style></defs><path d="M453.374465 1019.792092C216.935549 993.577965 25.873798 799.673034 2.673443 563.006664-17.854323 352.781875 89.163003 165.928032 255.31849 69.487339 293.417112 47.367392 341.353141 74.548201 341.353141 118.617503 341.353141 139.543314 329.354918 157.967126 311.329151 168.543758 193.394012 237.633052 113.898676 365.348734 113.898676 511.545091 113.898676 745.993781 317.811604 933.700578 557.7192 906.804087 735.645455 886.901821 882.296721 743.94669 906.293167 566.532208 929.095478 397.817859 845.107916 246.219458 712.672554 168.600622 694.533061 157.967126 682.534838 139.48645 682.534838 118.503776 682.534838 74.661928 730.300275 47.310529 768.285171 69.316748 920.96398 157.739671 1023.716535 322.473567 1023.716535 511.545091 1023.716535 813.320302 762.257628 1054.080853 453.374465 1019.792092ZM511.943989 511.545091C480.555273 511.545091 455.080373 486.070191 455.080373 454.681475L455.080373 56.806753C455.080373 25.418036 480.555273 0 511.943989 0 543.332705 0 568.807606 25.418036 568.807606 56.806753L568.807606 454.681475C568.807606 486.070191 543.332705 511.545091 511.943989 511.545091Z" p-id="60975" fill="#ffffff"></path></svg>