<?xml version="1.0" standalone="no"?><!DOCTYPE svg PUBLIC "-//W3C//DTD SVG 1.1//EN" "http://www.w3.org/Graphics/SVG/1.1/DTD/svg11.dtd"><svg t="1540969378343" class="icon" style="" viewBox="0 0 1024 1024" version="1.1" xmlns="http://www.w3.org/2000/svg" p-id="59502" xmlns:xlink="http://www.w3.org/1999/xlink" width="32" height="32"><defs><style type="text/css"></style></defs><path d="M792.2 141.7c16.8 15.5 30.1 28.4 40.1 38.7 9.9 10.3 17.6 18.9 22.8 26.1 5.3 7.1 8.5 13.2 9.8 18.2 1.2 5 1.9 9.3 1.9 13v14.9H728.9c-6.2 0-11.7-2.3-16.3-7-4.7-4.7-8.5-10.1-11.7-16.3-3.1-6.2-5.4-12.6-7-19.1-1.6-6.5-2.3-11.6-2.3-15.4V79.2h2.8c5 0 10.1 0.8 15.4 2.3 5.3 1.6 11.3 4.5 18.2 8.9 6.8 4.3 15.4 10.6 25.6 18.6 10.2 8.1 23.1 19 38.6 32.7z m-159.3 54c0 12.4 1.9 25.3 5.6 38.7 3.7 13.4 9.6 25.8 17.7 37.3 8.1 11.5 18.3 21 30.7 28.4 12.4 7.5 27 11.2 43.8 11.2h136v525.6c0 18-3.6 34.2-10.7 48.5-7.1 14.3-16.6 26.4-28.4 36.3-11.8 9.9-24.8 17.7-39.1 23.3-14.3 5.6-28.3 8.4-41.9 8.4H288.1c-11.8 0-24.7-3.4-38.7-10.3-14-6.8-27-15.8-39.1-27-12.1-11.2-22.2-23.9-30.3-38.2-8.1-14.3-12.1-29.2-12.1-44.7V199.4c0-13 3-26.6 8.9-40.5 5.9-14 14-26.9 24.2-38.7 10.3-11.8 21.9-21.6 34.9-29.4 13-7.8 26.7-11.6 41-11.6h356v116.5z m58.7 581.5c16.2 0 29.8-5.7 41-17.2s16.8-25.3 16.8-41.5-5.6-29.8-16.8-41c-11.2-11.2-24.8-16.8-41-16.8H342.1c-16.2 0-29.8 5.6-41 16.8-11.2 11.2-16.8 24.9-16.8 41s5.6 30 16.8 41.5c11.2 11.5 24.9 17.2 41 17.2h349.5z m57.8-290.7c0-16.2-5.6-30-16.8-41.5-11.2-11.5-24.8-17.2-41-17.2H342.1c-16.2 0-29.8 5.8-41 17.2-11.2 11.5-16.8 25.3-16.8 41.5s5.6 29.8 16.8 41c11.2 11.2 24.9 16.8 41 16.8h349.4c16.2 0 29.8-5.6 41-16.8 11.3-11.2 16.9-24.9 16.9-41z m0 0" p-id="59503" fill="#ffffff"></path></svg>