<?xml version="1.0" standalone="no"?><!DOCTYPE svg PUBLIC "-//W3C//DTD SVG 1.1//EN" "http://www.w3.org/Graphics/SVG/1.1/DTD/svg11.dtd"><svg t="1542076476288" class="icon" style="" viewBox="0 0 1024 1024" version="1.1" xmlns="http://www.w3.org/2000/svg" p-id="11981" xmlns:xlink="http://www.w3.org/1999/xlink" width="32" height="32"><defs><style type="text/css"></style></defs><path d="M402.7 445.4C390.8 464.8 384 487.6 384 512c0 70.7 57.3 128 128 128 24.4 0 47.2-6.8 66.6-18.7l-48.1-48.1c-5.9 1.8-12.1 2.7-18.6 2.7-35.3 0-64-28.7-64-64 0-6.5 1-12.7 2.7-18.6l-47.9-47.9zM574 496c-5.8-22.5-23.5-40.1-45.9-45.9L574 496z m149.2 149.2l-90.5-90.5c4.7-13.4 7.3-27.7 7.3-42.7 0-70.7-57.3-128-128-128-15 0-29.3 2.6-42.7 7.3L401.1 323c39-15.8 77.1-24.4 110.9-24.4 106.7 0 256 85.3 341.3 213.3-35 52.7-80.9 98.1-130.1 133.3z m-36.5 23.9l54.7 54.7-30.2 30.2-63.8-63.8c-47.4 22.7-94.6 35.2-135.4 35.2-106.7 0-256-85.3-341.3-213.3 40-60 94-110.6 151.2-147.5l-93.4-93.4 30.2-30.2 101.2 101.2 70.9 70.8 45.7 45.7 88.8 88.8 45.7 45.7 75.7 75.9z" fill="#515151" p-id="11982"></path></svg>