<?xml version="1.0" standalone="no"?><!DOCTYPE svg PUBLIC "-//W3C//DTD SVG 1.1//EN" "http://www.w3.org/Graphics/SVG/1.1/DTD/svg11.dtd"><svg t="1542076331504" class="icon" style="" viewBox="0 0 1024 1024" version="1.1" xmlns="http://www.w3.org/2000/svg" p-id="10727" xmlns:xlink="http://www.w3.org/1999/xlink" width="32" height="32"><defs><style type="text/css"></style></defs><path d="M513.180672 282.08036978c-250.597376 0-381.954048 184.603648-381.954048 213.894144S262.583296 709.86865778 513.180672 709.86865778 895.13472 525.26500978 895.13472 495.97451378 763.778048 282.08036978 513.180672 282.08036978zM513.180672 660.52516978c-93.733888 0-169.742336-73.680896-169.742336-164.550656s76.008448-164.550656 169.742336-164.550656c93.769728 0 169.778176 73.680896 169.778176 164.550656S606.9504 660.52516978 513.180672 660.52516978zM513.180672 495.97451378c-15.505408-17.033216 25.36448-82.239488 0-82.239488-46.861312 0-84.865024 36.82304-84.865024 82.239488s38.004736 82.275328 84.865024 82.275328c46.908416 0 84.913152-36.85888 84.913152-82.275328C598.093824 475.12177778 526.441472 510.48868978 513.180672 495.97451378z" p-id="10728" fill="#515151"></path></svg>