<?xml version="1.0" standalone="no"?><!DOCTYPE svg PUBLIC "-//W3C//DTD SVG 1.1//EN" "http://www.w3.org/Graphics/SVG/1.1/DTD/svg11.dtd"><svg t="1540968897990" class="icon" style="" viewBox="0 0 1024 1024" version="1.1" xmlns="http://www.w3.org/2000/svg" p-id="56949" xmlns:xlink="http://www.w3.org/1999/xlink" width="32" height="32"><defs><style type="text/css"></style></defs><path d="M592.609832 651.843232c-5.137239 7.205926-10.446869 14.067071-16.170236 20.204175 0.034478 0.72404 0.413737 1.310168 0.413737 2.034209v64.853333c0 17.894141-14.515286 32.409428-32.443905 32.409428H479.590572c-17.894141 0-32.409428-14.515286-32.409427-32.409428v-64.853333c0-0.72404 0.379259-1.344646 0.413737-2.034209-5.723367-6.137104-11.032997-12.998249-16.170236-20.204175-48.510707-28.030707-81.506263-79.816835-81.506262-139.843232 0-89.539663 72.576431-162.081616 162.116094-162.081616 89.505185 0 162.081616 72.576431 162.081616 162.081616 0 60.026397-33.030034 111.847003-81.506262 139.843232z m-96.814546 151.910573h32.409428c8.96431 0 16.204714 7.274882 16.204714 16.204714 0 8.96431-7.240404 16.204714-16.204714 16.204713h-32.409428c-8.96431 0-16.204714-7.274882-16.204714-16.204713 0-8.96431 7.274882-16.204714 16.204714-16.204714z m307.992997-259.344377h-64.853334c-22.376296 0-32.409428-10.550303-32.409427-32.409428 0-21.893603 10.033131-32.409428 32.409427-32.409428h64.853334c22.376296 0 32.409428 10.550303 32.409427 32.409428 0 21.893603-10.033131 32.409428-32.409427 32.409428z m-91.194613-179.699933c-15.825455 15.480673-41.477172 15.480673-57.302626 0s-15.825455-40.580741 0-56.026936l28.651313-28.030707c15.825455-15.480673 41.477172-15.480673 57.302626 0s15.825455 40.546263 0 56.026936l-28.651313 28.030707z m-200.59367-47.235017c-22.376296 0-32.409428-10.550303-32.409428-32.409427V220.211717c0-21.893603 10.033131-32.409428 32.409428-32.409427s32.409428 10.550303 32.409428 32.409427v64.853334c0 21.893603-10.033131 32.409428-32.409428 32.409427z m-200.59367 47.235017l-28.651313-28.030707c-15.825455-15.480673-15.825455-40.546263 0-56.026936s41.477172-15.480673 57.302626 0l28.651313 28.030707c15.825455 15.480673 15.825455 40.546263 0 56.026936s-41.477172 15.480673-57.302626 0z m6.068148 147.290505c0 21.893603-10.033131 32.409428-32.409427 32.409428H220.211717c-22.376296 0-32.409428-10.550303-32.409427-32.409428 0-21.893603 10.033131-32.409428 32.409427-32.409428h64.853334c22.376296 0 32.409428 10.550303 32.409427 32.409428z" fill="#ffffff" p-id="56950"></path></svg>