<?xml version="1.0" standalone="no"?><!DOCTYPE svg PUBLIC "-//W3C//DTD SVG 1.1//EN" "http://www.w3.org/Graphics/SVG/1.1/DTD/svg11.dtd"><svg t="1540965377686" class="icon" style="" viewBox="0 0 1024 1024" version="1.1" xmlns="http://www.w3.org/2000/svg" p-id="39656" xmlns:xlink="http://www.w3.org/1999/xlink" width="48" height="48"><defs><style type="text/css"></style></defs><path d="M668.28288 618.51648L921.6 873.18528v-68.46464a20.48 20.48 0 1 1 40.96 0v109.28128c0 7.2704 2.9696 16.62976-3.85024 23.42912-7.14752 8.21248-17.1008 4.64896-22.56896 4.64896h-109.28128a20.48 20.48 0 1 1 0-40.96h68.46464L640.65536 646.9632c-8.00768-8.00768-8.66304-20.70528-0.65536-28.69248s20.2752-7.74144 28.28288 0.24576zM396.71808 424.71424L143.36 170.06592v68.46464a20.48 20.48 0 1 1-40.96 0V129.24928c0-7.2704-2.92864-15.99488 3.87072-22.79424 7.168-8.23296 17.16224-4.05504 22.6304-4.05504h109.28128a20.48 20.48 0 1 1 0 40.96H169.71776l254.6688 253.5424c8.00768 8.00768 8.64256 20.39808 0.63488 28.38528s-20.29568 7.43424-28.30336-0.57344zM396.67712 618.51648L143.36 873.18528v-68.46464a20.48 20.48 0 1 0-40.96 0v109.28128c0 7.2704-2.9696 16.62976 3.85024 23.42912 7.14752 8.21248 17.1008 4.64896 22.56896 4.64896h109.28128a20.48 20.48 0 1 0 0-40.96H169.63584l254.6688-254.1568c8.00768-8.00768 8.66304-20.70528 0.65536-28.69248s-20.2752-7.74144-28.28288 0.24576zM668.24192 424.71424L921.6 170.06592v68.46464a20.48 20.48 0 1 0 40.96 0V129.24928c0-7.2704 2.92864-15.99488-3.87072-22.79424-7.168-8.23296-17.16224-4.05504-22.6304-4.05504H826.7776a20.48 20.48 0 1 0 0 40.96h68.46464L640.57344 396.9024c-8.00768 8.00768-8.64256 20.39808-0.63488 28.38528s20.29568 7.43424 28.30336-0.57344z" fill="#ffffff" p-id="39657"></path></svg>