<?xml version="1.0" standalone="no"?><!DOCTYPE svg PUBLIC "-//W3C//DTD SVG 1.1//EN" "http://www.w3.org/Graphics/SVG/1.1/DTD/svg11.dtd"><svg t="1540973188541" class="icon" style="" viewBox="0 0 1024 1024" version="1.1" xmlns="http://www.w3.org/2000/svg" p-id="61696" xmlns:xlink="http://www.w3.org/1999/xlink" width="32" height="32"><defs><style type="text/css"></style></defs><path d="M946.116165 117.971855v49.773614" fill="#ffffff" p-id="61697"></path><path d="M749.331313 65.838497H93.755314c-15.424294 0-27.929096 12.483312-27.929096 27.906584v836.900741c0 15.401782 12.504802 27.51568 27.929096 27.515681h836.924277c15.382339 0 27.494191-12.113899 27.494191-27.515681V275.063683L749.331313 65.838497z m-97.77486 236.477876c0 7.691169-6.274914 13.942547-13.986549 13.942547H191.214996c-7.701402 0-13.975293-6.252401-13.975293-13.942547V191.190437c0-7.690146 6.27389-13.94357 13.975293-13.94357h446.353884c7.711636 0 13.986549 6.252401 13.986549 13.94357l0.001024 111.125936z m195.203844 530.49319c0 7.691169-6.230911 13.942547-13.943571 13.942547H191.214996c-7.701402 0-13.975293-6.252401-13.975293-13.942547V512.151449c0-7.711636 6.27389-13.942547 13.975293-13.942547h641.60173a13.928221 13.928221 0 0 1 13.943571 13.942547v320.658114z m-56.209187-278.764981c0-7.691169-6.230911-13.942547-13.94357-13.942547H693.079148c-7.712659 0-13.94357 6.252401-13.94357 13.942547v83.524298a13.927197 13.927197 0 0 0 13.94357 13.942547h83.528392a13.928221 13.928221 0 0 0 13.94357-13.942547v-83.524298z" fill="#ffffff" p-id="61698"></path></svg>