<?xml version="1.0" standalone="no"?><!DOCTYPE svg PUBLIC "-//W3C//DTD SVG 1.1//EN" "http://www.w3.org/Graphics/SVG/1.1/DTD/svg11.dtd"><svg t="1540969312742" class="icon" style="" viewBox="0 0 1024 1024" version="1.1" xmlns="http://www.w3.org/2000/svg" p-id="58081" xmlns:xlink="http://www.w3.org/1999/xlink" width="32" height="32"><defs><style type="text/css"></style></defs><path d="M796.899341 682.144873c23.962371-41.181562 64.060207-66.588899 105.60301-71.405456 18.42333-2.167451 32.993415-16.617121 35.762935-34.920038 3.130762-20.952023 4.696143-42.265287 4.696143-64.060207 0-17.339605-1.083725-34.558796-3.010348-51.296331-2.287865-18.904986-17.339605-33.956726-36.365005-36.124177-41.783631-4.816557-82.242709-30.344309-106.20508-72.007526-24.444026-42.506115-25.888993-91.394167-7.947319-130.408278 8.067733-17.460019 2.76952-38.0508-12.402634-49.851364-29.621825-23.119473-62.374412-42.506115-97.535278-57.317027-17.941675-7.586077-38.893697-1.806209-50.092192 14.208843-24.805268 35.281279-68.033866 58.521167-117.162747 58.521167-49.128881 0-92.357479-23.360301-117.162747-58.521167C384.120414 113.068674 363.168391 107.168391 345.226717 114.754468c-34.558796 14.570085-66.829727 33.595484-96.210724 56.233302-15.172154 11.680151-20.470367 32.391345-12.523048 49.73095 17.821261 39.134525 16.135466 88.022578-8.428975 130.408278-24.082785 41.422389-64.662277 66.829727-106.445908 71.52587-19.0254 2.167451-34.197554 17.098777-36.485419 36.124177C82.965193 476.116651 81.881468 493.817498 81.881468 511.759172c0 21.19285 1.565381 42.024459 4.455315 62.374412 2.649106 18.302916 17.219191 32.752587 35.642521 35.040452 41.542803 5.057385 81.520226 30.585136 105.362183 71.887112 23.360301 40.459078 25.768579 86.698024 10.355597 124.748824-6.984008 17.339605-1.324553 37.087488 13.486359 48.406397 30.585136 23.360301 64.301035 42.626529 100.425212 57.196613 16.857949 6.863594 36.365005 1.685795 47.683913-12.643462 25.286924-32.150517 66.468485-52.982126 113.068674-52.982126 46.600188 0 87.78175 20.952023 113.068674 52.982126 11.318909 14.329257 30.70555 19.386642 47.683913 12.643462 35.642521-14.329257 68.997178-33.354657 99.100659-56.233302 14.810913-11.198495 20.590781-30.946378 13.727187-48.285983C770.889934 768.722484 773.418627 722.483537 796.899341 682.144873L796.899341 682.144873zM512.481656 699.002822c-103.43556 0-187.24365-83.80809-187.24365-187.24365 0-103.43556 83.80809-187.24365 187.24365-187.24365 103.43556 0 187.24365 83.80809 187.24365 187.24365C699.725306 615.074318 615.917215 699.002822 512.481656 699.002822L512.481656 699.002822z" p-id="58082" fill="#ffffff"></path></svg>